<?xml version="1.0" encoding="utf-8"?>
<!-- Generator: Adobe Illustrator 27.4.1, SVG Export Plug-In . SVG Version: 6.00 Build 0)  -->
<svg version="1.1" id="Camada_1" xmlns="http://www.w3.org/2000/svg" xmlns:xlink="http://www.w3.org/1999/xlink" x="0px" y="0px"
	 viewBox="0 0 1000 435.7" style="enable-background:new 0 0 1000 435.7;" xml:space="preserve">
<style type="text/css">
	.st0{fill:#426DA9;}
	.st1{fill:#6D2077;}
	.st2{fill:#AF1685;}
	.st3{fill:#E63888;}
	.st4{fill:#1D4F91;}
	.st5{fill-rule:evenodd;clip-rule:evenodd;fill:#1D4F91;}
</style>
<g>
	<path class="st0" d="M154.5,72h-35.3c-2,0-5,0-7-1c-2-1-4-2-6-4c-2-2-3-4-4-6c-1-2-1-5-1-7V18.9c0-2,0-5,1-7c1-3,2-5,4-7
		c2-2,4-3,6-4s5-1,7-1h35.3c5,0,9.9,2,12.9,5c4,4,6,8.9,6,13.9v35.3c0,5-2,9.9-6,12.9C164.4,70,159.5,72,154.5,72"/>
	<path class="st1" d="M64.1,150.5H23.9c-3,0-6-1-7.9-2c-3-1-5-3-7-5s-4-4-5-7c0-1-1-4-1-7V90.4c0-6,2-10.9,6-14.9c4-4,8.9-6,14.9-6
		h39.2c6,0,10.9,2,14.9,6c4,4,6,8.9,6,14.9v39.2c0,3-1,6-2,7.9c-1,3-3,5-5,7c-2,2-4,4-7,5C69.1,150.5,66.1,150.5,64.1,150.5"/>
	<path class="st2" d="M60.1,233H36.3c-2,0-3,0-5-1c-2-1-3-2-4-3c-1-1-2-3-3-4c-1.5-2.5-1.5-3.5-1.5-5.5v-23.8c0-2,0-3,1-5
		c1-2,2-3,3-4s3-2,4-3c1-1,3-1,5-1h23.8c2,0,3,0,5,1c2,1,3,2,4,3c1,1,2,3,3,4c0,2,1,3,1,5v23.8c0,2,0,3-1,5c-1,2-2,3-3,4
		c-1,1-3,2-4,3C63.1,232,62.1,233,60.1,233z"/>
	<path class="st3" d="M124.2,308H95.9c-2,0-4,0-6-1c-2-1-4-2-5-3s-3-3-3-5c-1-2-1-4-1-6v-28.3c0-2,0-4,1-6c1-2,2-4,3-5c1-1,3-3,5-3
		c2-1,4-1,6-1h28.3c2,0,4,0,6,1c2,1,4,2,5,3c1,1,3,3,3,5c1,2,1,4,1,6v28.3c0,2,0,4-1,6c-1,2-2,4-3,5c-1,1-3,3-5,3
		C128.7,308,126.2,308,124.2,308"/>
	<path class="st3" d="M230,87.4h-19.9c-3,0-6-1-7-3c-2-2-3-5-3-7V57.6c0-3,1-5,3-7c2-2,5-3,7-3H230c3,0,5,1,7,3c2,2,3,5,3,7v19.9
		c0,3-1,5-3,7C235,85.4,232,87.4,230,87.4"/>
	<path class="st4" d="M743.7,266.8c2,0,4-1,6-2c2-1,3-3,4-5c1-2,1-4,1-7c0-2-2-4-3-6c-2-2-4-3-6-3c-2,0-4,0-7,1c-2,1-4,2-5,4
		c-1,2-2,4-2,6c0,1,0,3,1,4s1,3,2,4c1,1,2,2,4,2C740.7,265.8,742.7,266.8,743.7,266.8L743.7,266.8z"/>
	<path class="st4" d="M328.4,387.5c-1,1-2,2-3,3c-1,1-3,1-4,1c-2,0-4,0-5-1c-1-1-2-2-3-4c-1-1-1-3-1-5c0-2,0-3,1-4l26.3-41.2
		l-26.3-41.2c-1-1-1-3-1-5c0-2,0-3,1-5c1-1,2-3,3-3c2-1,5-2,7-1c2,0,4,2,6,4l21.9,34.3l21.9-34.3c1-2,4-3,6-4c2,0,5,0,7,1
		c1,1,2,2,3,3c1,1,1,3,1,5c0,2,0,3-1,5l-26.3,41.2l26.3,41.2c1,1,1,3,1,4c0,2,0,3-1,5c-1,1-2,3-3,4c-2,1-3,1-5,1c-2,0-3,0-4-1
		c-1-1-2-2-3-3l-21.9-34.3L328.4,387.5z"/>
	<path class="st4" d="M422.3,294.1c7.9-7,17.9-11.9,29.3-13.9c10.9-2,21.9,0,32.3,4c9.9,4,17.9,11.9,23.8,20.9
		c6,8.9,8.9,19.9,8.9,31.3c0,11.4-3,21.9-8.9,31.3c-6,8.9-13.9,15.9-23.8,20.9c-9.9,4-20.9,6-32.3,4c-10.9-2-20.9-6-29.3-13.9v48.2
		c0,2-1,5-3,6c-2,2-4,3-7,3c-2,0-5-1-6-3c-2-2-3-4-3-6V289.1c0-2,1-5,3-6c2-2,4-3,6-3c2,0,5,1,7,3c2,2,3,4,3,6V294.1z M460.5,298.1
		c-7,0-14.9,2-20.9,6s-10.9,9.9-13.9,16.9s-4,13.9-2,21.9c1,7,5,13.9,9.9,18.9c5,5,11.9,8.9,18.9,9.9c7,1,14.9,1,21.9-2
		s12.9-7.9,16.9-13.9s6-12.9,6-20.9c0-5-1-9.9-3-14.9c-2-5-5-8.9-7.9-11.9c-4-4-7.9-6-11.9-7.9C470.4,299,465.5,298.1,460.5,298.1
		L460.5,298.1z"/>
	<path class="st4" d="M678.6,326.4v57.1c0,2-1,5-3,6c-2,2-4,3-6,3c-2,0-5-1-7-3c-2-2-3-4-3-6v-93.4c0-2,1-5,3-6c2-2,4-3,7-3
		c2,0,5,1,6,3c2,2,3,4,3,6c7.9-6,17.9-8.9,28.3-8.9c3,0,5,1,7,3s3,4,3,7c0,3-1,5-3,7c-2,2-4,3-7,3C692.5,299,678.6,304,678.6,326.4z
		"/>
	<path class="st4" d="M744.7,280.2c-2,0-5,1-7,3c-2,2-3,4-3,6v93.4c0,2,1,5,3,6c2,2,4,3,7,3c2,0,5-1,6-3c2-2,3-4,3-6v-93.4
		c0-2-1-5-3-6C748.6,281.2,746.6,280.2,744.7,280.2L744.7,280.2z"/>
	<path class="st4" d="M863.9,289.1c0-2,1-5,3-6c2-2,4-3,7-3c2,0,5,1,6,3c2,2,3,4,3,6v93.4c0,2-1,5-3,6c-2,1-4,3-6,3c-2,0-5-1-7-3
		c-2-2-3-4-3-6v-4c-7.9,7-17.9,11.9-29.3,13.9c-10.9,2-21.9,0-32.3-4s-17.9-11.9-23.8-20.9c-6-8.9-8.9-19.9-8.9-31.3
		c0-11.4,3-21.9,8.9-31.3c6-8.9,13.9-15.9,23.8-20.9c9.9-4,20.9-6,32.3-4c10.9,2,20.9,6,29.3,13.9V289.1z M826.1,373.6
		c7,0,14.9-2,20.9-6c6-4,10.9-9.9,13.9-16.9s4-13.9,2-21.9c-1-7-5-13.9-9.9-18.9c-5-5-11.9-8.9-18.9-9.9c-7-1-14.9-1-21.9,2
		c-7,3-12.9,7.9-16.9,13.9c-4,6-6,12.9-6,20.9c0,5,1,9.9,3,14.9c2,5,5,8.9,7.9,11.9c4,4,7.9,6,11.9,7.9
		C815.7,373.6,820.7,373.6,826.1,373.6L826.1,373.6z"/>
	<path class="st4" d="M977.6,327.4c0-7.9-3-14.9-8.9-19.9c-5-5-12.9-8.9-19.9-8.9c-14.9,0-29.3,6-29.3,28.3V384c0,2-1,5-3,6
		c-2,1-4,3-6,3s-5-1-7-3c-2-2-3-4-3-6v-93.9c0-2,1-5,3-6c2-2,4-3,7-3c2,0,5,1,6,3c2,2,3,4,3,6c7.9-6,18.9-9.9,29.3-8.9
		c25.3,0,48.2,19.9,48.2,45.2v58.1c0,2-1,5-3,6c-2,2-4,3-6,3c-2,0-5-1-7-3c-2-2-3-4-3-6v-57.1H977.6z"/>
	<path class="st4" d="M306,333.3c0-29.3-26.3-53.2-56.1-53.2c-7,0-14.9,1-21.9,4s-12.9,7-17.9,11.9c-5,5-8.9,10.9-11.9,17.9
		c-3,7-4,13.9-4,21.9c0,7.9,1,14.9,4,21.9c3,7,7,12.9,11.9,17.9c5,5,10.9,8.9,17.9,11.9c7,3,13.9,4,21.9,4c7,0,13.9-1,20.9-4
		s12.9-7,17.9-11.9c1-1,3-3,3-5c0-2,0-4,0-6c-1-2-2-3-3-4c-2-1-3-2-5-2c-3,0-6,2-7,4c-3,3-7,6-11.9,7.9c-4,2-8.9,2-13.9,2
		c-8.9,0-17.9-3-23.8-8.9c-7-6-11.9-13.9-12.9-21.9h85.4l0,0l0,0l0,0h1c2-1,4-2,5-4C305,337.3,306,335.3,306,333.3L306,333.3z
		 M248.9,298.1c7.9,0,15.9,2,21.9,7c6,5,10.9,10.9,13.9,18.9h-72c2-7.9,7-13.9,13.9-18.9C233.5,300,240.9,298.1,248.9,298.1
		L248.9,298.1z"/>
	<path class="st4" d="M644.3,333.3c0-29.3-26.3-53.2-56.1-53.2c-7,0-14.9,1-21.9,4c-7,3-12.9,7-17.9,11.9c-5,5-8.9,10.9-11.9,17.9
		c-3,7-4,13.9-4,21.9c0,7.9,1,14.9,4,21.9c3,7,7,12.9,11.9,17.9c5,5,10.9,8.9,17.9,11.9c7,3,13.9,4,21.9,4c7,0,13.9-1,20.9-4
		c7-3,12.9-7,17.9-11.9c1-1,3-3,3-5c0-2,0-4,0-6c-1-2-2-3-3-4c-2-1-3-2-5-2c-3,0-6,2-7,4c-3,3-7,6-11.9,7.9c-4,2-8.9,2-13.9,2
		c-8.9,0-17.9-3-23.8-8.9c-7-6-11.9-13.9-12.9-21.9h85.4l0,0l0,0h1l0,0c2-1,4-2,6-4C643.3,337.3,644.3,335.3,644.3,333.3
		L644.3,333.3z M587.2,298.1c7.9,0,15.9,2,21.9,7c6,5,10.9,10.9,13.9,18.9h-72c2-7.9,7-13.9,13.9-18.9
		C570.8,300,579.2,298.1,587.2,298.1L587.2,298.1z"/>
	<path class="st4" d="M248.9,113.3c-7,0-14.9,1-21.9,4c-7,3-12.9,7-18.9,11.9c-6,5-9.9,10.9-11.9,17.9c-3,7-4,13.9-4,21.9
		c0,7,1,14.9,4,21.9c3,7,7,12.9,11.9,17.9c5,5,11.9,8.9,18.9,11.9c7,3,13.9,4,21.9,4c7,0,13.9-1,20.9-4c7-3,12.9-7,17.9-11.9
		c1-1,3-3,3-5s0-4,0-6c-1-2-2-3-3-4c-2-1-3-2-5-2c-3,0-6,2-7,4c-3,3-7,6-11.9,7.9c-5,2-9.9,3-14.9,2c-8.9,0-17.9-3-23.8-8.9
		c-7-6-11.9-13.9-12.9-21.9h85.4l0,0l0,0h1l0,0c2-1,4-2,6-4c1-2,2-4,2-6C305,137.6,280.2,113.3,248.9,113.3z M212.6,157.5
		c2-7.9,7-13.9,13.9-18.9c6-5,13.9-7,21.9-7c7.9,0,15.9,3,21.9,7c6,5,10.9,10.9,13.9,18.9H212.6z"/>
	<path class="st4" d="M478.9,113.3c-2,0-5,1-7,3c-2,2-3,4-3,6v5c-7.9-7-17.9-11.9-29.3-13.9c-10.9-2-21.9,0-32.3,4
		c-9.9,4-17.9,11.9-23.8,20.9c-6,8.9-8.9,19.9-8.9,31.3c0,10.9,3,21.9,8.9,31.3c6,8.9,13.9,15.9,23.8,20.9c9.9,4,20.9,6,32.3,4
		c11.4-2,20.9-6,29.3-13.9v5c0,2,1,5,3,6c2,2,4,3,7,3c2,0,5-1,6-3c2-2,3-4,3-6v-93.4c0-2-1-5-3-6
		C482.9,114.3,480.9,113.3,478.9,113.3L478.9,113.3z M431.7,206.6c-7,0-14.9-2-20.9-6c-6-4-10.9-9.9-13.9-16.9c-3-7-4-13.9-2-21.9
		c1-7,5-13.9,9.9-18.9c5-5,11.9-8.9,18.9-9.9c7-1,14.9-1,21.9,2c7,3,12.9,7.9,16.9,13.9s6,12.9,6,20.9c0,5-1,9.9-3,13.9
		c-2,5-5,8.9-7.9,11.9c-4,4-7.9,6-11.9,7.9C441.6,206.6,436.7,207.6,431.7,206.6L431.7,206.6z"/>
	<path class="st4" d="M686.5,113.3c-2,0-5,1-7,3c-2,2-3,4-3,6v5c-7.9-7-17.9-11.9-29.3-13.9c-10.9-2-21.9,0-32.3,4
		c-9.9,4-17.9,11.9-23.8,20.9c-6,8.9-8.9,19.9-8.9,31.3c0,10.9,3,21.9,8.9,31.3c6,8.9,13.9,15.9,23.8,20.9c9.9,4,20.9,6,32.3,4
		c10.9-2,20.9-6,29.3-13.9v5c0,2,1,5,3,6c2,2,4,3,7,3c2,0,5-1,6-3c1-2,3-4,3-6v-93.4c0-2-1-5-3-6
		C691.5,114.3,689.5,113.3,686.5,113.3L686.5,113.3z M639.3,206.6c-7,0-14.9-2-20.9-6c-6-4-10.9-9.9-13.9-16.9s-4-13.9-2-21.9
		c1-7,5-13.9,9.9-18.9c5-5,11.9-8.9,18.9-9.9c7-1,14.9-1,21.9,2c7,3,12.9,7.9,16.9,13.9c4,6,6,12.9,6,20.9c0,5-1,9.9-3,13.9
		c-2,5-5,8.9-7.9,11.9c-4,4-7.9,6-11.9,7.9C649.3,206.6,644.3,207.6,639.3,206.6L639.3,206.6z"/>
	<path class="st4" d="M368.1,113.3c-9.9,0-19.9,3-28.3,8.9c0-2-1-4-3-6c-2-2-4-2-6-3c-2,0-5,1-7,3c-2,2-3,4-3,6v93.4c0,2,1,5,3,6
		c2,2,4,3,7,3c2,0,5-1,6-3c2-2,3-4,3-6v-57.1c0-21.9,13.9-27.3,28.3-28.3c3,0,5-1,7-3c2-2,3-4,3-7s-1-5-3-7
		C373.1,113.3,370.1,112.3,368.1,113.3L368.1,113.3z"/>
	<path class="st5" d="M163.5,166.4c-7-4-13.9-7-20.9-10.9c-3-2-5-3-7.9-6c-1-1-2-2-3-4c-1-2-1-3-1-5c0-2,1-3,2-5c1-1,2-3,4-3
		c2-1,4-2,6-2c6-1,12.9,1,17.9,4c3,2,6,3,8.9,3c2,0,3,0,5-1c1-1,3-2,4-3c1-1,1-3,2-4c0-2,0-3-1-4c-1-2-3-4-5-6
		c-7.9-6-16.9-8.9-27.3-8.9c-7,0-13.9,2-19.9,5c-6,3-10.9,8.9-13.9,15.9c-2,7-2,13.9,1,20.9c3,7,7.9,11.9,13.9,14.9
		c6,3,10.9,6,16.9,8.9c5,2,8.9,5,12.9,8.9c5,5,6,9.9,3,14.9c-1,2-3,3-4,4c-3,2-4,3-6,3c-7,1-14.9-1-20.9-5c-2-1-5-3-7-4
		c-1-1-3-1-5-1s-3,1-4,2c-1,1-2,2-3,4c-1,2-1,3,0,5c1,3,3,6,5,7.9c11.9,10.9,35.3,12.9,50.2,6c4-2,7-4,9.9-7c3-3,5-7,6-9.9
		c1-4,2-7.9,1-11.9c-1-4-2-7.9-4-10.9C174.4,174.9,169.4,170.4,163.5,166.4z"/>
	<path class="st5" d="M554.9,166.4c-7-4-13.9-7-20.9-10.9c-3-2-5-3-7.9-6c-1-1-2-2-3-4c-1-2-1-3-1-5c0-2,1-3,2-5c1-1,2-3,4-3
		c2-1,4-2,6-2c6-1,12.9,1,17.9,4c3,2,6,3,8.9,3c2,0,3,0,5-1c1-1,3-2,4-3c1-1,1-3,2-4c0-2,0-3-1-4c-1-2-3-4-5-6
		c-7.9-6-16.9-8.9-27.3-8.9c-7,0-13.9,2-19.9,5s-10.9,8.9-13.9,15.9c-2,7-2,13.9,1,20.9c3,7,7.9,11.9,13.9,14.9s10.9,6,16.9,8.9
		c5,2,8.9,5,12.9,8.9c5,5,6,9.9,3,14.9c-1,2-3,3-4,4c-1,1-4,3-6,3c-7,1-14.9-1-20.9-5c-2-1-5-3-7-4c-1-1-3-1-5-1c-2,0-3,1-4,2
		c-1,1-2,2-3,4c-1,2-1,3,0,5c1,3,3,6,5,7.9c11.9,10.9,35.3,12.9,50.2,6c4-2,7-4,9.9-7c3-3,5-7,6-9.9c1-4,2-7.9,1-11.9
		c0-4-2-7.9-4-10.9C565.8,174.9,560.9,170.4,554.9,166.4L554.9,166.4z"/>
</g>
</svg>
