<svg id="Logo" xmlns="http://www.w3.org/2000/svg" viewBox="0 0 267.355 65.805">
  <defs>
    <style>
      .cls-1 {
        fill: #1f2e5d;
      }

      .cls-2 {
        fill: #717171;
      }
    </style>
  </defs>
  <g id="Group_2_1_" transform="translate(89.771 19.438)">
    <g id="Group_1_1_" transform="translate(0 0)">
      <path id="Path_1_1_" class="cls-1" d="M128.2,23.5h5.735l.3.3V47.279c.346,3.016,1.928,4.548,4.647,4.548h14.88l.3.3v5.438l-.3.3H138.282a10.723,10.723,0,0,1-8.5-4.548,10.365,10.365,0,0,1-1.879-5.833V23.747Z" transform="translate(-127.9 -23.5)"/>
    </g>
  </g>
  <g id="Group_4_1_" transform="translate(128.239 19.286)">
    <g id="Group_3_1_" transform="translate(0 0)">
      <path id="Path_2_1_" class="cls-1" d="M183,23.3h5.735l.3.247V57.411l-.3.3H183l-.3-.3V23.6Z" transform="translate(-182.7 -23.3)"/>
    </g>
  </g>
  <path id="Path_3_1_" class="cls-2" d="M488,68.3H522.4l.3.3v5.043l-.3.3H508.314v28.377l-.3.3h-5.685l-.3-.3V73.985H487.9l-.3-.3V68.646Z" transform="translate(-340.487 -48.894)"/>
  <g id="Group_6_1_" transform="translate(194.029 19.362)">
    <g id="Group_5_1_" transform="translate(0 0)">
      <path id="Path_4_1_" class="cls-1" d="M276.739,23.449h5.735l.3.3V41.84c0,4.153,2.521,7.317,7.514,9.541a12.416,12.416,0,0,0,3.757.593,11.048,11.048,0,0,0,10.777-7.415,9.567,9.567,0,0,0,.593-3.708V23.7l.3-.3H311.3l.3.3v17.8A16.017,16.017,0,0,1,304.967,54.2a17.562,17.562,0,0,1-10.382,3.559H293.2q-8.083,0-13.941-7.564a16.614,16.614,0,0,1-2.867-9.838V23.7Z" transform="translate(-276.386 -23.4)"/>
    </g>
  </g>
  <g id="Group_8_1_" transform="translate(241.005 16.476)">
    <g id="Group_7_1_" transform="translate(0 0)">
      <path id="Path_5_1_" class="cls-1" d="M345.179,49.906a20.656,20.656,0,0,0,9.64,2.571c5.339,0,7.811-2.373,7.811-5.339,0-3.115-2.076-4.8-7.465-6.625-7.218-2.274-10.629-5.834-10.629-10.135,0-5.735,5.24-10.481,13.842-10.481a22.085,22.085,0,0,1,9.887,2.225l-1.829,4.746a17.008,17.008,0,0,0-8.206-2.076c-4.35,0-6.773,2.225-6.773,4.894,0,2.966,2.422,4.3,7.663,6.031,7.02,2.373,10.53,5.487,10.53,10.777,0,6.278-5.487,10.777-15.078,10.777A25.387,25.387,0,0,1,343.3,54.751Z" transform="translate(-343.3 -19.896)"/>
    </g>
  </g>
  <g id="Group_13_1_" transform="translate(0 0)">
    <path id="Path_6_1_" class="cls-2" d="M75.9,3.682s19.972-7.218,26.449,3.065c6.575,10.332-7.218,39.9-12.409,44.345H82.426C82.426,51.141,111.643,4.028,75.9,3.682Z" transform="translate(-38.388 -0.624)"/>
    <path id="Path_7_1_" class="cls-2" d="M28.963,77.91S8.991,85.127,2.514,74.845C-4.061,64.512,9.683,35,14.873,30.5h7.564S-6.78,77.563,28.963,77.91Z" transform="translate(-0.399 -15.429)"/>
    <g id="Group_10_1_" transform="translate(0 0)">
      <g id="Group_9_1_">
        <path id="Path_8_1_" class="cls-1" d="M2.482,28.186S-4.735,8.214,5.547,1.738c10.332-6.526,39.9,7.218,44.345,12.409V21.71S2.828-7.556,2.482,28.186Z" transform="translate(-0.021 -0.015)"/>
      </g>
    </g>
    <g id="Group_12_1_" transform="translate(15.36 37.615)">
      <g id="Group_11_1_" transform="translate(0 0)">
        <path id="Path_9_1_" class="cls-1" d="M69.31,53.6s7.218,19.972-3.065,26.448C55.912,86.624,26.4,72.831,21.9,67.64V60.076C21.851,60.126,68.964,89.343,69.31,53.6Z" transform="translate(-21.9 -53.6)"/>
      </g>
    </g>
  </g>
</svg>
