<svg xmlns="http://www.w3.org/2000/svg" viewBox="0 0 269.381 66.304">
  <defs>
    <style>
      .cls-1 {
        fill: #fff;
      }
    </style>
  </defs>
  <g id="Group_59" data-name="Group 59" transform="translate(0)">
    <g id="Group_52" data-name="Group 52" transform="translate(0.373 0.601)">
      <path id="Path_3_1_" class="cls-1" d="M488,68.3h34.669l.3.3V73.68l-.3.3h-14.2V102.57l-.3.3h-5.728l-.3-.3V74.028H487.9l-.3-.3V68.649Z" transform="translate(-339.745 -51.16)"/>
      <path id="Path_6_1_" class="cls-1" d="M75.9,3.7s20.124-7.272,26.649,3.088c6.625,10.411-7.272,40.2-12.5,44.681H82.475C82.475,51.52,111.914,4.05,75.9,3.7Z" transform="translate(-38.476 -1.221)"/>
      <path id="Path_7_1_" class="cls-1" d="M29.177,78.269S9.053,85.541,2.528,75.181C-4.1,64.77,9.75,35.033,14.98,30.5H22.6S-6.837,77.92,29.177,78.269Z" transform="translate(-0.768 -15.916)"/>
    </g>
    <g id="Group_53" data-name="Group 53">
      <path id="Path_1_1_" class="cls-1" d="M128.2,23.5h5.778l.3.3v23.66c.349,3.038,1.943,4.583,4.682,4.583h14.993l.3.3V57.82l-.3.3H138.36a10.8,10.8,0,0,1-8.568-4.583,10.444,10.444,0,0,1-1.893-5.878V23.749Z" transform="translate(-37.448 -5.727)"/>
      <path id="Path_2_1_" class="cls-1" d="M183,23.3h5.778l.3.249V57.67l-.3.3H183l-.3-.3V23.6Z" transform="translate(-53.489 -5.68)"/>
      <path id="Path_4_1_" class="cls-1" d="M276.742,23.45h5.778l.3.3V41.98c0,4.184,2.541,7.372,7.571,9.614a12.511,12.511,0,0,0,3.786.6,11.131,11.131,0,0,0,10.859-7.472,9.638,9.638,0,0,0,.6-3.736V23.7l.3-.3h5.629l.3.3V41.631a16.14,16.14,0,0,1-6.675,12.8,17.7,17.7,0,0,1-10.46,3.586h-1.395q-8.144,0-14.047-7.621a16.739,16.739,0,0,1-2.889-9.912V23.7Z" transform="translate(-80.887 -5.703)"/>
      <path id="Path_5_1_" class="cls-1" d="M345.193,50.133a20.812,20.812,0,0,0,9.713,2.59c5.38,0,7.87-2.391,7.87-5.38,0-3.138-2.092-4.832-7.521-6.675-7.272-2.291-10.709-5.878-10.709-10.211,0-5.778,5.28-10.56,13.947-10.56a22.252,22.252,0,0,1,9.962,2.242l-1.843,4.782a17.137,17.137,0,0,0-8.269-2.092c-4.383,0-6.824,2.242-6.824,4.931,0,2.989,2.441,4.334,7.721,6.077,7.073,2.391,10.61,5.529,10.61,10.859,0,6.326-5.529,10.859-15.192,10.859a25.579,25.579,0,0,1-11.357-2.54Z" transform="translate(-100.468 -5.107)"/>
      <path id="Path_8_1_" class="cls-1" d="M2.5,28.4S-4.772,8.276,5.589,1.751C16-4.824,45.787,9.023,50.27,14.253v7.621S2.85-7.614,2.5,28.4Z" transform="translate(-0.021 -0.015)"/>
      <path id="Path_9_1_" class="cls-1" d="M69.669,53.6s7.272,20.124-3.088,26.649C56.17,86.874,26.433,72.977,21.9,67.746V60.125C21.85,60.175,69.32,89.614,69.669,53.6Z" transform="translate(-6.423 -15.7)"/>
    </g>
  </g>
</svg>
